<mxfile host="Electron" agent="Mozilla/5.0 (Windows NT 10.0; Win64; x64) AppleWebKit/537.36 (KHTML, like Gecko) draw.io/24.7.17 Chrome/128.0.6613.36 Electron/32.0.1 Safari/537.36" version="24.7.17">
  <diagram name="Page-1" id="0lh3aIpPkRZX3TSNDqny">
    <mxGraphModel dx="1098" dy="648" grid="1" gridSize="10" guides="1" tooltips="1" connect="1" arrows="1" fold="1" page="1" pageScale="1" pageWidth="850" pageHeight="1100" math="0" shadow="0">
      <root>
        <mxCell id="0" />
        <mxCell id="1" parent="0" />
        <mxCell id="VD05A4pDJf5GkUQkJBeE-1" value="&lt;span style=&quot;font-size: 17px;&quot;&gt;&lt;b&gt;Airline&lt;/b&gt;&lt;/span&gt;" style="rounded=0;whiteSpace=wrap;html=1;" vertex="1" parent="1">
          <mxGeometry x="434" y="440" width="120" height="60" as="geometry" />
        </mxCell>
        <mxCell id="VD05A4pDJf5GkUQkJBeE-2" value="&lt;b&gt;&lt;font style=&quot;font-size: 15px;&quot;&gt;Employes&lt;/font&gt;&lt;/b&gt;" style="rounded=0;whiteSpace=wrap;html=1;" vertex="1" parent="1">
          <mxGeometry x="894" y="440" width="120" height="60" as="geometry" />
        </mxCell>
        <mxCell id="VD05A4pDJf5GkUQkJBeE-3" value="&lt;b&gt;&lt;font style=&quot;font-size: 15px;&quot;&gt;Routes&lt;/font&gt;&lt;/b&gt;" style="rounded=0;whiteSpace=wrap;html=1;" vertex="1" parent="1">
          <mxGeometry x="409" y="790" width="120" height="60" as="geometry" />
        </mxCell>
        <mxCell id="VD05A4pDJf5GkUQkJBeE-4" value="&lt;b&gt;&lt;font style=&quot;font-size: 15px;&quot;&gt;Aircraft&lt;/font&gt;&lt;/b&gt;" style="rounded=0;whiteSpace=wrap;html=1;" vertex="1" parent="1">
          <mxGeometry x="904" y="790" width="120" height="60" as="geometry" />
        </mxCell>
        <mxCell id="VD05A4pDJf5GkUQkJBeE-5" value="Airline_Id" style="ellipse;whiteSpace=wrap;html=1;" vertex="1" parent="1">
          <mxGeometry x="314" y="330" width="80" height="60" as="geometry" />
        </mxCell>
        <mxCell id="VD05A4pDJf5GkUQkJBeE-6" value="Airline_Name" style="ellipse;whiteSpace=wrap;html=1;" vertex="1" parent="1">
          <mxGeometry x="399" y="310" width="80" height="60" as="geometry" />
        </mxCell>
        <mxCell id="VD05A4pDJf5GkUQkJBeE-7" value="" style="endArrow=none;html=1;rounded=0;exitX=0.167;exitY=0.017;exitDx=0;exitDy=0;exitPerimeter=0;entryX=0.5;entryY=1;entryDx=0;entryDy=0;" edge="1" parent="1" source="VD05A4pDJf5GkUQkJBeE-1" target="VD05A4pDJf5GkUQkJBeE-6">
          <mxGeometry width="50" height="50" relative="1" as="geometry">
            <mxPoint x="514" y="430" as="sourcePoint" />
            <mxPoint x="524" y="390" as="targetPoint" />
            <Array as="points" />
          </mxGeometry>
        </mxCell>
        <mxCell id="VD05A4pDJf5GkUQkJBeE-8" value="" style="endArrow=none;html=1;rounded=0;exitX=0;exitY=0.5;exitDx=0;exitDy=0;" edge="1" parent="1" source="VD05A4pDJf5GkUQkJBeE-1" target="VD05A4pDJf5GkUQkJBeE-5">
          <mxGeometry width="50" height="50" relative="1" as="geometry">
            <mxPoint x="429" y="460" as="sourcePoint" />
            <mxPoint x="399" y="400" as="targetPoint" />
          </mxGeometry>
        </mxCell>
        <mxCell id="VD05A4pDJf5GkUQkJBeE-9" value="Employ_Id" style="ellipse;whiteSpace=wrap;html=1;" vertex="1" parent="1">
          <mxGeometry x="784" y="350" width="80" height="60" as="geometry" />
        </mxCell>
        <mxCell id="VD05A4pDJf5GkUQkJBeE-10" value="Employ_Name" style="ellipse;whiteSpace=wrap;html=1;" vertex="1" parent="1">
          <mxGeometry x="859" y="330" width="80" height="60" as="geometry" />
        </mxCell>
        <mxCell id="VD05A4pDJf5GkUQkJBeE-11" value="" style="endArrow=none;html=1;rounded=0;entryX=0.238;entryY=0.9;entryDx=0;entryDy=0;entryPerimeter=0;exitX=0.5;exitY=0;exitDx=0;exitDy=0;" edge="1" parent="1" source="VD05A4pDJf5GkUQkJBeE-2" target="VD05A4pDJf5GkUQkJBeE-80">
          <mxGeometry width="50" height="50" relative="1" as="geometry">
            <mxPoint x="960" y="430" as="sourcePoint" />
            <mxPoint x="1048" y="378" as="targetPoint" />
          </mxGeometry>
        </mxCell>
        <mxCell id="VD05A4pDJf5GkUQkJBeE-12" value="" style="endArrow=none;html=1;rounded=0;exitX=0.375;exitY=0;exitDx=0;exitDy=0;exitPerimeter=0;entryX=0.5;entryY=1;entryDx=0;entryDy=0;" edge="1" parent="1" source="VD05A4pDJf5GkUQkJBeE-2" target="VD05A4pDJf5GkUQkJBeE-10">
          <mxGeometry width="50" height="50" relative="1" as="geometry">
            <mxPoint x="963.5" y="440" as="sourcePoint" />
            <mxPoint x="964.5" y="390" as="targetPoint" />
            <Array as="points" />
          </mxGeometry>
        </mxCell>
        <mxCell id="VD05A4pDJf5GkUQkJBeE-13" value="" style="endArrow=none;html=1;rounded=0;" edge="1" parent="1" target="VD05A4pDJf5GkUQkJBeE-9">
          <mxGeometry width="50" height="50" relative="1" as="geometry">
            <mxPoint x="914" y="440" as="sourcePoint" />
            <mxPoint x="884" y="380" as="targetPoint" />
          </mxGeometry>
        </mxCell>
        <mxCell id="VD05A4pDJf5GkUQkJBeE-14" value="" style="endArrow=none;html=1;rounded=0;entryX=0;entryY=0.5;entryDx=0;entryDy=0;exitX=1;exitY=0.5;exitDx=0;exitDy=0;" edge="1" parent="1" source="VD05A4pDJf5GkUQkJBeE-1" target="VD05A4pDJf5GkUQkJBeE-2">
          <mxGeometry relative="1" as="geometry">
            <mxPoint x="634" y="469.5" as="sourcePoint" />
            <mxPoint x="794" y="469.5" as="targetPoint" />
          </mxGeometry>
        </mxCell>
        <mxCell id="VD05A4pDJf5GkUQkJBeE-15" value="1" style="text;html=1;align=center;verticalAlign=middle;resizable=0;points=[];autosize=1;strokeColor=none;fillColor=none;" vertex="1" parent="1">
          <mxGeometry x="559" y="448" width="30" height="30" as="geometry" />
        </mxCell>
        <mxCell id="VD05A4pDJf5GkUQkJBeE-16" value="M" style="text;html=1;align=center;verticalAlign=middle;resizable=0;points=[];autosize=1;strokeColor=none;fillColor=none;" vertex="1" parent="1">
          <mxGeometry x="864" y="448" width="30" height="30" as="geometry" />
        </mxCell>
        <mxCell id="VD05A4pDJf5GkUQkJBeE-17" value="Aircraft_Id" style="ellipse;whiteSpace=wrap;html=1;" vertex="1" parent="1">
          <mxGeometry x="849" y="680" width="80" height="60" as="geometry" />
        </mxCell>
        <mxCell id="VD05A4pDJf5GkUQkJBeE-18" value="Capacity" style="ellipse;whiteSpace=wrap;html=1;" vertex="1" parent="1">
          <mxGeometry x="938" y="680" width="76" height="60" as="geometry" />
        </mxCell>
        <mxCell id="VD05A4pDJf5GkUQkJBeE-19" value="" style="endArrow=none;html=1;rounded=0;exitX=0.658;exitY=0;exitDx=0;exitDy=0;exitPerimeter=0;entryX=0.7;entryY=1.017;entryDx=0;entryDy=0;entryPerimeter=0;" edge="1" parent="1" target="VD05A4pDJf5GkUQkJBeE-17">
          <mxGeometry width="50" height="50" relative="1" as="geometry">
            <mxPoint x="944" y="790" as="sourcePoint" />
            <mxPoint x="945" y="740" as="targetPoint" />
            <Array as="points" />
          </mxGeometry>
        </mxCell>
        <mxCell id="VD05A4pDJf5GkUQkJBeE-20" value="" style="endArrow=none;html=1;rounded=0;entryX=0.263;entryY=0.933;entryDx=0;entryDy=0;entryPerimeter=0;" edge="1" parent="1" target="VD05A4pDJf5GkUQkJBeE-18">
          <mxGeometry width="50" height="50" relative="1" as="geometry">
            <mxPoint x="984" y="790" as="sourcePoint" />
            <mxPoint x="1038" y="728" as="targetPoint" />
          </mxGeometry>
        </mxCell>
        <mxCell id="VD05A4pDJf5GkUQkJBeE-21" value="" style="endArrow=none;html=1;rounded=0;" edge="1" parent="1">
          <mxGeometry relative="1" as="geometry">
            <mxPoint x="334" y="370" as="sourcePoint" />
            <mxPoint x="374" y="370" as="targetPoint" />
          </mxGeometry>
        </mxCell>
        <mxCell id="VD05A4pDJf5GkUQkJBeE-22" value="" style="endArrow=none;html=1;rounded=0;" edge="1" parent="1">
          <mxGeometry relative="1" as="geometry">
            <mxPoint x="804" y="390" as="sourcePoint" />
            <mxPoint x="850" y="390" as="targetPoint" />
          </mxGeometry>
        </mxCell>
        <mxCell id="VD05A4pDJf5GkUQkJBeE-23" value="" style="endArrow=none;html=1;rounded=0;" edge="1" parent="1">
          <mxGeometry relative="1" as="geometry">
            <mxPoint x="864" y="720" as="sourcePoint" />
            <mxPoint x="914" y="720" as="targetPoint" />
          </mxGeometry>
        </mxCell>
        <mxCell id="VD05A4pDJf5GkUQkJBeE-29" value="Number_Passengers" style="ellipse;whiteSpace=wrap;html=1;" vertex="1" parent="1">
          <mxGeometry x="270" y="670" width="120" height="60" as="geometry" />
        </mxCell>
        <mxCell id="VD05A4pDJf5GkUQkJBeE-30" value="Route_Id" style="ellipse;whiteSpace=wrap;html=1;" vertex="1" parent="1">
          <mxGeometry x="390" y="660" width="90" height="60" as="geometry" />
        </mxCell>
        <mxCell id="VD05A4pDJf5GkUQkJBeE-31" value="Price" style="ellipse;whiteSpace=wrap;html=1;" vertex="1" parent="1">
          <mxGeometry x="480" y="660" width="80" height="60" as="geometry" />
        </mxCell>
        <mxCell id="VD05A4pDJf5GkUQkJBeE-32" value="" style="endArrow=none;html=1;rounded=0;exitX=0.658;exitY=0;exitDx=0;exitDy=0;exitPerimeter=0;entryX=0.389;entryY=1.033;entryDx=0;entryDy=0;entryPerimeter=0;" edge="1" parent="1" target="VD05A4pDJf5GkUQkJBeE-30">
          <mxGeometry width="50" height="50" relative="1" as="geometry">
            <mxPoint x="429" y="788" as="sourcePoint" />
            <mxPoint x="430" y="738" as="targetPoint" />
            <Array as="points" />
          </mxGeometry>
        </mxCell>
        <mxCell id="VD05A4pDJf5GkUQkJBeE-33" value="" style="endArrow=none;html=1;rounded=0;entryX=0;entryY=1;entryDx=0;entryDy=0;" edge="1" parent="1" target="VD05A4pDJf5GkUQkJBeE-31">
          <mxGeometry width="50" height="50" relative="1" as="geometry">
            <mxPoint x="434" y="790" as="sourcePoint" />
            <mxPoint x="494" y="720" as="targetPoint" />
          </mxGeometry>
        </mxCell>
        <mxCell id="VD05A4pDJf5GkUQkJBeE-34" value="" style="endArrow=none;html=1;rounded=0;entryX=0.367;entryY=0.933;entryDx=0;entryDy=0;entryPerimeter=0;" edge="1" parent="1" target="VD05A4pDJf5GkUQkJBeE-29">
          <mxGeometry width="50" height="50" relative="1" as="geometry">
            <mxPoint x="416" y="790" as="sourcePoint" />
            <mxPoint x="390" y="742" as="targetPoint" />
          </mxGeometry>
        </mxCell>
        <mxCell id="VD05A4pDJf5GkUQkJBeE-39" value="Departure_Time" style="ellipse;whiteSpace=wrap;html=1;" vertex="1" parent="1">
          <mxGeometry x="558" y="665" width="96" height="50" as="geometry" />
        </mxCell>
        <mxCell id="VD05A4pDJf5GkUQkJBeE-40" value="Arrival_Time" style="ellipse;whiteSpace=wrap;html=1;" vertex="1" parent="1">
          <mxGeometry x="654" y="675" width="86" height="40" as="geometry" />
        </mxCell>
        <mxCell id="VD05A4pDJf5GkUQkJBeE-43" value="&lt;b&gt;&lt;font style=&quot;font-size: 15px;&quot;&gt;Transactions&lt;/font&gt;&lt;/b&gt;" style="rounded=0;whiteSpace=wrap;html=1;" vertex="1" parent="1">
          <mxGeometry x="824" y="1030" width="120" height="60" as="geometry" />
        </mxCell>
        <mxCell id="VD05A4pDJf5GkUQkJBeE-44" value="" style="endArrow=none;html=1;rounded=0;" edge="1" parent="1">
          <mxGeometry relative="1" as="geometry">
            <mxPoint x="404" y="699.5" as="sourcePoint" />
            <mxPoint x="464" y="699.5" as="targetPoint" />
          </mxGeometry>
        </mxCell>
        <mxCell id="VD05A4pDJf5GkUQkJBeE-45" value="Transaction_id" style="ellipse;whiteSpace=wrap;html=1;" vertex="1" parent="1">
          <mxGeometry x="740" y="938" width="94" height="60" as="geometry" />
        </mxCell>
        <mxCell id="VD05A4pDJf5GkUQkJBeE-46" value="Type" style="ellipse;whiteSpace=wrap;html=1;" vertex="1" parent="1">
          <mxGeometry x="838" y="933" width="56" height="50" as="geometry" />
        </mxCell>
        <mxCell id="VD05A4pDJf5GkUQkJBeE-47" value="Date" style="ellipse;whiteSpace=wrap;html=1;" vertex="1" parent="1">
          <mxGeometry x="894" y="930" width="66" height="50" as="geometry" />
        </mxCell>
        <mxCell id="VD05A4pDJf5GkUQkJBeE-48" value="" style="endArrow=none;html=1;rounded=0;exitX=0.417;exitY=-0.033;exitDx=0;exitDy=0;exitPerimeter=0;entryX=0.5;entryY=1;entryDx=0;entryDy=0;" edge="1" parent="1" source="VD05A4pDJf5GkUQkJBeE-43" target="VD05A4pDJf5GkUQkJBeE-46">
          <mxGeometry width="50" height="50" relative="1" as="geometry">
            <mxPoint x="898.5" y="1030" as="sourcePoint" />
            <mxPoint x="900" y="1000" as="targetPoint" />
            <Array as="points" />
          </mxGeometry>
        </mxCell>
        <mxCell id="VD05A4pDJf5GkUQkJBeE-49" value="" style="endArrow=none;html=1;rounded=0;entryX=1;entryY=1;entryDx=0;entryDy=0;" edge="1" parent="1" target="VD05A4pDJf5GkUQkJBeE-45">
          <mxGeometry width="50" height="50" relative="1" as="geometry">
            <mxPoint x="850" y="1030" as="sourcePoint" />
            <mxPoint x="824" y="982" as="targetPoint" />
          </mxGeometry>
        </mxCell>
        <mxCell id="VD05A4pDJf5GkUQkJBeE-50" value="" style="endArrow=none;html=1;rounded=0;entryX=0.258;entryY=0.9;entryDx=0;entryDy=0;entryPerimeter=0;exitX=0.825;exitY=-0.017;exitDx=0;exitDy=0;exitPerimeter=0;" edge="1" parent="1" source="VD05A4pDJf5GkUQkJBeE-43" target="VD05A4pDJf5GkUQkJBeE-47">
          <mxGeometry width="50" height="50" relative="1" as="geometry">
            <mxPoint x="944" y="1052" as="sourcePoint" />
            <mxPoint x="975.04" y="1018" as="targetPoint" />
          </mxGeometry>
        </mxCell>
        <mxCell id="VD05A4pDJf5GkUQkJBeE-51" value="&lt;b&gt;&lt;font style=&quot;font-size: 15px;&quot;&gt;Crews&lt;/font&gt;&lt;/b&gt;" style="rounded=0;whiteSpace=wrap;html=1;" vertex="1" parent="1">
          <mxGeometry x="444" y="1015" width="120" height="60" as="geometry" />
        </mxCell>
        <mxCell id="VD05A4pDJf5GkUQkJBeE-52" value="Major_Pilot" style="ellipse;whiteSpace=wrap;html=1;" vertex="1" parent="1">
          <mxGeometry x="374" y="923" width="80" height="60" as="geometry" />
        </mxCell>
        <mxCell id="VD05A4pDJf5GkUQkJBeE-53" value="Assistant_Pilot" style="ellipse;whiteSpace=wrap;html=1;" vertex="1" parent="1">
          <mxGeometry x="464" y="905" width="110" height="78" as="geometry" />
        </mxCell>
        <mxCell id="VD05A4pDJf5GkUQkJBeE-54" value="Hostesess" style="ellipse;whiteSpace=wrap;html=1;" vertex="1" parent="1">
          <mxGeometry x="577" y="955" width="80" height="60" as="geometry" />
        </mxCell>
        <mxCell id="VD05A4pDJf5GkUQkJBeE-55" value="" style="endArrow=none;html=1;rounded=0;exitX=0.658;exitY=0;exitDx=0;exitDy=0;exitPerimeter=0;entryX=0.5;entryY=1;entryDx=0;entryDy=0;" edge="1" parent="1" target="VD05A4pDJf5GkUQkJBeE-53">
          <mxGeometry width="50" height="50" relative="1" as="geometry">
            <mxPoint x="518.5" y="1015" as="sourcePoint" />
            <mxPoint x="520" y="985" as="targetPoint" />
            <Array as="points" />
          </mxGeometry>
        </mxCell>
        <mxCell id="VD05A4pDJf5GkUQkJBeE-56" value="" style="endArrow=none;html=1;rounded=0;entryX=1;entryY=1;entryDx=0;entryDy=0;" edge="1" parent="1" target="VD05A4pDJf5GkUQkJBeE-52">
          <mxGeometry width="50" height="50" relative="1" as="geometry">
            <mxPoint x="470" y="1015" as="sourcePoint" />
            <mxPoint x="444" y="967" as="targetPoint" />
          </mxGeometry>
        </mxCell>
        <mxCell id="VD05A4pDJf5GkUQkJBeE-57" value="" style="endArrow=none;html=1;rounded=0;entryX=0.063;entryY=0.75;entryDx=0;entryDy=0;entryPerimeter=0;" edge="1" parent="1" target="VD05A4pDJf5GkUQkJBeE-54">
          <mxGeometry width="50" height="50" relative="1" as="geometry">
            <mxPoint x="564" y="1037" as="sourcePoint" />
            <mxPoint x="595.04" y="1003" as="targetPoint" />
          </mxGeometry>
        </mxCell>
        <mxCell id="VD05A4pDJf5GkUQkJBeE-63" value="" style="endArrow=none;html=1;rounded=0;" edge="1" parent="1">
          <mxGeometry relative="1" as="geometry">
            <mxPoint x="384" y="967.5" as="sourcePoint" />
            <mxPoint x="434" y="967.5" as="targetPoint" />
          </mxGeometry>
        </mxCell>
        <mxCell id="VD05A4pDJf5GkUQkJBeE-74" value="" style="endArrow=none;html=1;rounded=0;" edge="1" parent="1">
          <mxGeometry relative="1" as="geometry">
            <mxPoint x="190" y="1210" as="sourcePoint" />
            <mxPoint x="504" y="1210" as="targetPoint" />
          </mxGeometry>
        </mxCell>
        <mxCell id="VD05A4pDJf5GkUQkJBeE-75" value="" style="endArrow=none;html=1;rounded=0;" edge="1" parent="1">
          <mxGeometry relative="1" as="geometry">
            <mxPoint x="504" y="1210" as="sourcePoint" />
            <mxPoint x="874" y="1210" as="targetPoint" />
          </mxGeometry>
        </mxCell>
        <mxCell id="VD05A4pDJf5GkUQkJBeE-76" value="" style="endArrow=none;html=1;rounded=0;" edge="1" parent="1">
          <mxGeometry relative="1" as="geometry">
            <mxPoint x="873.33" y="1090" as="sourcePoint" />
            <mxPoint x="874" y="1210" as="targetPoint" />
          </mxGeometry>
        </mxCell>
        <mxCell id="VD05A4pDJf5GkUQkJBeE-79" value="M" style="text;html=1;align=center;verticalAlign=middle;resizable=0;points=[];autosize=1;strokeColor=none;fillColor=none;" vertex="1" parent="1">
          <mxGeometry x="849" y="1088" width="30" height="30" as="geometry" />
        </mxCell>
        <mxCell id="VD05A4pDJf5GkUQkJBeE-80" value="Date_Birth" style="ellipse;whiteSpace=wrap;html=1;" vertex="1" parent="1">
          <mxGeometry x="939" y="310" width="80" height="60" as="geometry" />
        </mxCell>
        <mxCell id="VD05A4pDJf5GkUQkJBeE-83" value="Works" style="text;html=1;align=center;verticalAlign=middle;resizable=0;points=[];autosize=1;strokeColor=none;fillColor=none;" vertex="1" parent="1">
          <mxGeometry x="734" y="448" width="60" height="30" as="geometry" />
        </mxCell>
        <mxCell id="VD05A4pDJf5GkUQkJBeE-85" value="Address" style="ellipse;whiteSpace=wrap;html=1;" vertex="1" parent="1">
          <mxGeometry x="489" y="350" width="80" height="60" as="geometry" />
        </mxCell>
        <mxCell id="VD05A4pDJf5GkUQkJBeE-86" value="City" style="ellipse;whiteSpace=wrap;html=1;" vertex="1" parent="1">
          <mxGeometry x="474" y="260" width="60" height="40" as="geometry" />
        </mxCell>
        <mxCell id="VD05A4pDJf5GkUQkJBeE-87" value="Street" style="ellipse;whiteSpace=wrap;html=1;" vertex="1" parent="1">
          <mxGeometry x="539" y="260" width="60" height="40" as="geometry" />
        </mxCell>
        <mxCell id="VD05A4pDJf5GkUQkJBeE-88" value="" style="endArrow=none;html=1;rounded=0;entryX=0.5;entryY=1;entryDx=0;entryDy=0;exitX=0.325;exitY=0.033;exitDx=0;exitDy=0;exitPerimeter=0;" edge="1" parent="1" target="VD05A4pDJf5GkUQkJBeE-86" source="VD05A4pDJf5GkUQkJBeE-85">
          <mxGeometry width="50" height="50" relative="1" as="geometry">
            <mxPoint x="590" y="360" as="sourcePoint" />
            <mxPoint x="655" y="390" as="targetPoint" />
          </mxGeometry>
        </mxCell>
        <mxCell id="VD05A4pDJf5GkUQkJBeE-89" value="" style="endArrow=none;html=1;rounded=0;entryX=0.5;entryY=1;entryDx=0;entryDy=0;exitX=1;exitY=0;exitDx=0;exitDy=0;" edge="1" parent="1" source="VD05A4pDJf5GkUQkJBeE-85" target="VD05A4pDJf5GkUQkJBeE-87">
          <mxGeometry width="50" height="50" relative="1" as="geometry">
            <mxPoint x="720" y="430" as="sourcePoint" />
            <mxPoint x="774" y="368" as="targetPoint" />
          </mxGeometry>
        </mxCell>
        <mxCell id="VD05A4pDJf5GkUQkJBeE-90" value="" style="endArrow=none;html=1;rounded=0;entryX=0;entryY=1;entryDx=0;entryDy=0;" edge="1" parent="1" target="VD05A4pDJf5GkUQkJBeE-85">
          <mxGeometry width="50" height="50" relative="1" as="geometry">
            <mxPoint x="474" y="440" as="sourcePoint" />
            <mxPoint x="504" y="410" as="targetPoint" />
          </mxGeometry>
        </mxCell>
        <mxCell id="VD05A4pDJf5GkUQkJBeE-91" value="Name_Person" style="ellipse;whiteSpace=wrap;html=1;" vertex="1" parent="1">
          <mxGeometry x="574" y="300" width="86" height="60" as="geometry" />
        </mxCell>
        <mxCell id="VD05A4pDJf5GkUQkJBeE-92" value="" style="endArrow=none;html=1;rounded=0;entryX=0;entryY=1;entryDx=0;entryDy=0;" edge="1" parent="1" target="VD05A4pDJf5GkUQkJBeE-91">
          <mxGeometry width="50" height="50" relative="1" as="geometry">
            <mxPoint x="554" y="440" as="sourcePoint" />
            <mxPoint x="608" y="378" as="targetPoint" />
          </mxGeometry>
        </mxCell>
        <mxCell id="VD05A4pDJf5GkUQkJBeE-93" value="phones" style="ellipse;shape=doubleEllipse;margin=3;whiteSpace=wrap;html=1;align=center;" vertex="1" parent="1">
          <mxGeometry x="591" y="400" width="100" height="40" as="geometry" />
        </mxCell>
        <mxCell id="VD05A4pDJf5GkUQkJBeE-94" value="" style="endArrow=none;html=1;rounded=0;entryX=0;entryY=0.5;entryDx=0;entryDy=0;exitX=1;exitY=0.25;exitDx=0;exitDy=0;" edge="1" parent="1" source="VD05A4pDJf5GkUQkJBeE-1" target="VD05A4pDJf5GkUQkJBeE-93">
          <mxGeometry width="50" height="50" relative="1" as="geometry">
            <mxPoint x="620" y="440" as="sourcePoint" />
            <mxPoint x="673" y="361" as="targetPoint" />
          </mxGeometry>
        </mxCell>
        <mxCell id="VD05A4pDJf5GkUQkJBeE-95" value="Address" style="ellipse;whiteSpace=wrap;html=1;" vertex="1" parent="1">
          <mxGeometry x="1019" y="340" width="80" height="60" as="geometry" />
        </mxCell>
        <mxCell id="VD05A4pDJf5GkUQkJBeE-96" value="City" style="ellipse;whiteSpace=wrap;html=1;" vertex="1" parent="1">
          <mxGeometry x="1034" y="290" width="60" height="40" as="geometry" />
        </mxCell>
        <mxCell id="VD05A4pDJf5GkUQkJBeE-97" value="Street" style="ellipse;whiteSpace=wrap;html=1;" vertex="1" parent="1">
          <mxGeometry x="1099" y="300" width="60" height="40" as="geometry" />
        </mxCell>
        <mxCell id="VD05A4pDJf5GkUQkJBeE-98" value="" style="endArrow=none;html=1;rounded=0;entryX=0.5;entryY=1;entryDx=0;entryDy=0;exitX=0.325;exitY=0.033;exitDx=0;exitDy=0;exitPerimeter=0;" edge="1" parent="1" source="VD05A4pDJf5GkUQkJBeE-95" target="VD05A4pDJf5GkUQkJBeE-96">
          <mxGeometry width="50" height="50" relative="1" as="geometry">
            <mxPoint x="1200" y="375" as="sourcePoint" />
            <mxPoint x="1265" y="405" as="targetPoint" />
          </mxGeometry>
        </mxCell>
        <mxCell id="VD05A4pDJf5GkUQkJBeE-99" value="" style="endArrow=none;html=1;rounded=0;entryX=0.5;entryY=1;entryDx=0;entryDy=0;exitX=1;exitY=0;exitDx=0;exitDy=0;" edge="1" parent="1" source="VD05A4pDJf5GkUQkJBeE-95" target="VD05A4pDJf5GkUQkJBeE-97">
          <mxGeometry width="50" height="50" relative="1" as="geometry">
            <mxPoint x="1330" y="445" as="sourcePoint" />
            <mxPoint x="1384" y="383" as="targetPoint" />
          </mxGeometry>
        </mxCell>
        <mxCell id="VD05A4pDJf5GkUQkJBeE-101" value="" style="endArrow=none;html=1;rounded=0;entryX=0.05;entryY=0.633;entryDx=0;entryDy=0;entryPerimeter=0;exitX=0.667;exitY=-0.017;exitDx=0;exitDy=0;exitPerimeter=0;" edge="1" parent="1" source="VD05A4pDJf5GkUQkJBeE-2" target="VD05A4pDJf5GkUQkJBeE-95">
          <mxGeometry width="50" height="50" relative="1" as="geometry">
            <mxPoint x="1049" y="438" as="sourcePoint" />
            <mxPoint x="1078" y="367" as="targetPoint" />
          </mxGeometry>
        </mxCell>
        <mxCell id="VD05A4pDJf5GkUQkJBeE-103" value="Gender" style="ellipse;whiteSpace=wrap;html=1;" vertex="1" parent="1">
          <mxGeometry x="1110" y="350" width="80" height="60" as="geometry" />
        </mxCell>
        <mxCell id="VD05A4pDJf5GkUQkJBeE-104" value="Postion" style="ellipse;whiteSpace=wrap;html=1;" vertex="1" parent="1">
          <mxGeometry x="1134" y="410" width="80" height="40" as="geometry" />
        </mxCell>
        <mxCell id="VD05A4pDJf5GkUQkJBeE-105" value="" style="endArrow=none;html=1;rounded=0;entryX=0.075;entryY=0.733;entryDx=0;entryDy=0;entryPerimeter=0;exitX=0.917;exitY=0.033;exitDx=0;exitDy=0;exitPerimeter=0;" edge="1" parent="1" source="VD05A4pDJf5GkUQkJBeE-2" target="VD05A4pDJf5GkUQkJBeE-103">
          <mxGeometry width="50" height="50" relative="1" as="geometry">
            <mxPoint x="1050" y="450" as="sourcePoint" />
            <mxPoint x="1099" y="389" as="targetPoint" />
          </mxGeometry>
        </mxCell>
        <mxCell id="VD05A4pDJf5GkUQkJBeE-106" value="" style="endArrow=none;html=1;rounded=0;entryX=0.025;entryY=0.4;entryDx=0;entryDy=0;entryPerimeter=0;exitX=1;exitY=0.25;exitDx=0;exitDy=0;" edge="1" parent="1" source="VD05A4pDJf5GkUQkJBeE-2" target="VD05A4pDJf5GkUQkJBeE-104">
          <mxGeometry width="50" height="50" relative="1" as="geometry">
            <mxPoint x="1014" y="464" as="sourcePoint" />
            <mxPoint x="1126" y="416" as="targetPoint" />
          </mxGeometry>
        </mxCell>
        <mxCell id="VD05A4pDJf5GkUQkJBeE-107" value="Qualification" style="ellipse;whiteSpace=wrap;html=1;" vertex="1" parent="1">
          <mxGeometry x="1129" y="450" width="80" height="40" as="geometry" />
        </mxCell>
        <mxCell id="VD05A4pDJf5GkUQkJBeE-108" value="" style="endArrow=none;html=1;rounded=0;entryX=0;entryY=0.5;entryDx=0;entryDy=0;exitX=1;exitY=0.5;exitDx=0;exitDy=0;" edge="1" parent="1" source="VD05A4pDJf5GkUQkJBeE-2" target="VD05A4pDJf5GkUQkJBeE-107">
          <mxGeometry width="50" height="50" relative="1" as="geometry">
            <mxPoint x="1060" y="480" as="sourcePoint" />
            <mxPoint x="1182" y="451" as="targetPoint" />
          </mxGeometry>
        </mxCell>
        <mxCell id="VD05A4pDJf5GkUQkJBeE-109" value="Date" style="ellipse;whiteSpace=wrap;html=1;" vertex="1" parent="1">
          <mxGeometry x="859" y="240" width="60" height="40" as="geometry" />
        </mxCell>
        <mxCell id="VD05A4pDJf5GkUQkJBeE-110" value="Month" style="ellipse;whiteSpace=wrap;html=1;" vertex="1" parent="1">
          <mxGeometry x="930" y="240" width="60" height="40" as="geometry" />
        </mxCell>
        <mxCell id="VD05A4pDJf5GkUQkJBeE-111" value="Year" style="ellipse;whiteSpace=wrap;html=1;" vertex="1" parent="1">
          <mxGeometry x="999" y="240" width="60" height="40" as="geometry" />
        </mxCell>
        <mxCell id="VD05A4pDJf5GkUQkJBeE-112" value="" style="endArrow=none;html=1;rounded=0;entryX=0.5;entryY=1;entryDx=0;entryDy=0;" edge="1" parent="1" source="VD05A4pDJf5GkUQkJBeE-80">
          <mxGeometry width="50" height="50" relative="1" as="geometry">
            <mxPoint x="910" y="290" as="sourcePoint" />
            <mxPoint x="952" y="281" as="targetPoint" />
          </mxGeometry>
        </mxCell>
        <mxCell id="VD05A4pDJf5GkUQkJBeE-113" value="" style="endArrow=none;html=1;rounded=0;entryX=0.733;entryY=0.975;entryDx=0;entryDy=0;exitX=0;exitY=0;exitDx=0;exitDy=0;entryPerimeter=0;" edge="1" parent="1" source="VD05A4pDJf5GkUQkJBeE-80" target="VD05A4pDJf5GkUQkJBeE-109">
          <mxGeometry width="50" height="50" relative="1" as="geometry">
            <mxPoint x="930" y="300" as="sourcePoint" />
            <mxPoint x="916" y="269" as="targetPoint" />
          </mxGeometry>
        </mxCell>
        <mxCell id="VD05A4pDJf5GkUQkJBeE-114" value="" style="endArrow=none;html=1;rounded=0;entryX=0;entryY=1;entryDx=0;entryDy=0;exitX=0.713;exitY=0.05;exitDx=0;exitDy=0;exitPerimeter=0;" edge="1" parent="1" source="VD05A4pDJf5GkUQkJBeE-80" target="VD05A4pDJf5GkUQkJBeE-111">
          <mxGeometry width="50" height="50" relative="1" as="geometry">
            <mxPoint x="1000" y="300" as="sourcePoint" />
            <mxPoint x="986" y="269" as="targetPoint" />
          </mxGeometry>
        </mxCell>
        <mxCell id="VD05A4pDJf5GkUQkJBeE-115" value="Model" style="ellipse;whiteSpace=wrap;html=1;" vertex="1" parent="1">
          <mxGeometry x="1026" y="680" width="76" height="60" as="geometry" />
        </mxCell>
        <mxCell id="VD05A4pDJf5GkUQkJBeE-116" value="" style="endArrow=none;html=1;rounded=0;entryX=0;entryY=1;entryDx=0;entryDy=0;exitX=0.875;exitY=-0.05;exitDx=0;exitDy=0;exitPerimeter=0;" edge="1" parent="1" source="VD05A4pDJf5GkUQkJBeE-4" target="VD05A4pDJf5GkUQkJBeE-115">
          <mxGeometry width="50" height="50" relative="1" as="geometry">
            <mxPoint x="1020" y="770" as="sourcePoint" />
            <mxPoint x="994" y="716" as="targetPoint" />
          </mxGeometry>
        </mxCell>
        <mxCell id="VD05A4pDJf5GkUQkJBeE-118" value="Travelling_Time" style="ellipse;whiteSpace=wrap;html=1;" vertex="1" parent="1">
          <mxGeometry x="654" y="720" width="96" height="40" as="geometry" />
        </mxCell>
        <mxCell id="VD05A4pDJf5GkUQkJBeE-119" value="Destination" style="ellipse;whiteSpace=wrap;html=1;" vertex="1" parent="1">
          <mxGeometry x="651" y="760" width="86" height="40" as="geometry" />
        </mxCell>
        <mxCell id="VD05A4pDJf5GkUQkJBeE-120" value="Distance" style="ellipse;whiteSpace=wrap;html=1;" vertex="1" parent="1">
          <mxGeometry x="651" y="800" width="86" height="40" as="geometry" />
        </mxCell>
        <mxCell id="VD05A4pDJf5GkUQkJBeE-122" value="" style="endArrow=none;html=1;rounded=0;entryX=0;entryY=1;entryDx=0;entryDy=0;" edge="1" parent="1" target="VD05A4pDJf5GkUQkJBeE-39">
          <mxGeometry width="50" height="50" relative="1" as="geometry">
            <mxPoint x="500" y="794" as="sourcePoint" />
            <mxPoint x="558" y="715" as="targetPoint" />
          </mxGeometry>
        </mxCell>
        <mxCell id="VD05A4pDJf5GkUQkJBeE-123" value="" style="endArrow=none;html=1;rounded=0;entryX=0.105;entryY=0.7;entryDx=0;entryDy=0;entryPerimeter=0;" edge="1" parent="1" target="VD05A4pDJf5GkUQkJBeE-40">
          <mxGeometry width="50" height="50" relative="1" as="geometry">
            <mxPoint x="530" y="790" as="sourcePoint" />
            <mxPoint x="589" y="721" as="targetPoint" />
            <Array as="points">
              <mxPoint x="561" y="770" />
            </Array>
          </mxGeometry>
        </mxCell>
        <mxCell id="VD05A4pDJf5GkUQkJBeE-124" value="" style="endArrow=none;html=1;rounded=0;entryX=0;entryY=0.5;entryDx=0;entryDy=0;" edge="1" parent="1" target="VD05A4pDJf5GkUQkJBeE-118">
          <mxGeometry width="50" height="50" relative="1" as="geometry">
            <mxPoint x="530" y="800" as="sourcePoint" />
            <mxPoint x="648" y="701" as="targetPoint" />
          </mxGeometry>
        </mxCell>
        <mxCell id="VD05A4pDJf5GkUQkJBeE-125" value="" style="endArrow=none;html=1;rounded=0;entryX=0;entryY=0.5;entryDx=0;entryDy=0;" edge="1" parent="1" target="VD05A4pDJf5GkUQkJBeE-119">
          <mxGeometry width="50" height="50" relative="1" as="geometry">
            <mxPoint x="530" y="810" as="sourcePoint" />
            <mxPoint x="658" y="721" as="targetPoint" />
          </mxGeometry>
        </mxCell>
        <mxCell id="VD05A4pDJf5GkUQkJBeE-126" value="" style="endArrow=none;html=1;rounded=0;entryX=0;entryY=0.5;entryDx=0;entryDy=0;exitX=1.008;exitY=0.617;exitDx=0;exitDy=0;exitPerimeter=0;" edge="1" parent="1" source="VD05A4pDJf5GkUQkJBeE-3" target="VD05A4pDJf5GkUQkJBeE-120">
          <mxGeometry width="50" height="50" relative="1" as="geometry">
            <mxPoint x="630" y="820" as="sourcePoint" />
            <mxPoint x="688" y="741" as="targetPoint" />
          </mxGeometry>
        </mxCell>
        <mxCell id="VD05A4pDJf5GkUQkJBeE-128" value="Num1" style="ellipse;whiteSpace=wrap;html=1;" vertex="1" parent="1">
          <mxGeometry x="651" y="340" width="60" height="40" as="geometry" />
        </mxCell>
        <mxCell id="VD05A4pDJf5GkUQkJBeE-129" value="Num2" style="ellipse;whiteSpace=wrap;html=1;" vertex="1" parent="1">
          <mxGeometry x="700" y="370" width="60" height="40" as="geometry" />
        </mxCell>
        <mxCell id="VD05A4pDJf5GkUQkJBeE-130" value="" style="endArrow=none;html=1;rounded=0;entryX=0;entryY=0.5;entryDx=0;entryDy=0;" edge="1" parent="1">
          <mxGeometry width="50" height="50" relative="1" as="geometry">
            <mxPoint x="610" y="405" as="sourcePoint" />
            <mxPoint x="660" y="370" as="targetPoint" />
          </mxGeometry>
        </mxCell>
        <mxCell id="VD05A4pDJf5GkUQkJBeE-131" value="" style="endArrow=none;html=1;rounded=0;" edge="1" parent="1">
          <mxGeometry width="50" height="50" relative="1" as="geometry">
            <mxPoint x="680" y="410" as="sourcePoint" />
            <mxPoint x="700" y="390" as="targetPoint" />
          </mxGeometry>
        </mxCell>
        <mxCell id="VD05A4pDJf5GkUQkJBeE-132" value="Host1" style="ellipse;whiteSpace=wrap;html=1;" vertex="1" parent="1">
          <mxGeometry x="565" y="890" width="65" height="40" as="geometry" />
        </mxCell>
        <mxCell id="VD05A4pDJf5GkUQkJBeE-133" value="Host2" style="ellipse;whiteSpace=wrap;html=1;" vertex="1" parent="1">
          <mxGeometry x="630" y="893" width="73" height="40" as="geometry" />
        </mxCell>
        <mxCell id="VD05A4pDJf5GkUQkJBeE-135" value="" style="endArrow=none;html=1;rounded=0;exitX=0.588;exitY=0.033;exitDx=0;exitDy=0;exitPerimeter=0;entryX=0.638;entryY=0.95;entryDx=0;entryDy=0;entryPerimeter=0;" edge="1" parent="1" source="VD05A4pDJf5GkUQkJBeE-54" target="VD05A4pDJf5GkUQkJBeE-132">
          <mxGeometry width="50" height="50" relative="1" as="geometry">
            <mxPoint x="650" y="960" as="sourcePoint" />
            <mxPoint x="650.5" y="928" as="targetPoint" />
            <Array as="points" />
          </mxGeometry>
        </mxCell>
        <mxCell id="VD05A4pDJf5GkUQkJBeE-136" value="" style="endArrow=none;html=1;rounded=0;exitX=1;exitY=0;exitDx=0;exitDy=0;entryX=0;entryY=1;entryDx=0;entryDy=0;" edge="1" parent="1" source="VD05A4pDJf5GkUQkJBeE-54" target="VD05A4pDJf5GkUQkJBeE-133">
          <mxGeometry width="50" height="50" relative="1" as="geometry">
            <mxPoint x="670" y="970" as="sourcePoint" />
            <mxPoint x="670.5" y="938" as="targetPoint" />
            <Array as="points" />
          </mxGeometry>
        </mxCell>
        <mxCell id="VD05A4pDJf5GkUQkJBeE-138" value="" style="endArrow=none;html=1;rounded=0;" edge="1" parent="1">
          <mxGeometry relative="1" as="geometry">
            <mxPoint x="762" y="980" as="sourcePoint" />
            <mxPoint x="812" y="980" as="targetPoint" />
          </mxGeometry>
        </mxCell>
        <mxCell id="VD05A4pDJf5GkUQkJBeE-139" value="Description" style="ellipse;whiteSpace=wrap;html=1;" vertex="1" parent="1">
          <mxGeometry x="960" y="938" width="66" height="50" as="geometry" />
        </mxCell>
        <mxCell id="VD05A4pDJf5GkUQkJBeE-140" value="" style="endArrow=none;html=1;rounded=0;entryX=0;entryY=1;entryDx=0;entryDy=0;exitX=1;exitY=0;exitDx=0;exitDy=0;" edge="1" parent="1" source="VD05A4pDJf5GkUQkJBeE-43" target="VD05A4pDJf5GkUQkJBeE-139">
          <mxGeometry width="50" height="50" relative="1" as="geometry">
            <mxPoint x="980" y="1000" as="sourcePoint" />
            <mxPoint x="968" y="946" as="targetPoint" />
          </mxGeometry>
        </mxCell>
        <mxCell id="VD05A4pDJf5GkUQkJBeE-141" value="Amount" style="ellipse;whiteSpace=wrap;html=1;" vertex="1" parent="1">
          <mxGeometry x="999" y="983" width="66" height="50" as="geometry" />
        </mxCell>
        <mxCell id="VD05A4pDJf5GkUQkJBeE-142" value="" style="endArrow=none;html=1;rounded=0;entryX=0;entryY=0.5;entryDx=0;entryDy=0;exitX=1;exitY=0.25;exitDx=0;exitDy=0;" edge="1" parent="1" source="VD05A4pDJf5GkUQkJBeE-43" target="VD05A4pDJf5GkUQkJBeE-141">
          <mxGeometry width="50" height="50" relative="1" as="geometry">
            <mxPoint x="990" y="1040" as="sourcePoint" />
            <mxPoint x="1008" y="1003" as="targetPoint" />
          </mxGeometry>
        </mxCell>
        <mxCell id="VD05A4pDJf5GkUQkJBeE-143" value="" style="endArrow=none;html=1;rounded=0;entryX=0;entryY=0.5;entryDx=0;entryDy=0;" edge="1" parent="1" target="VD05A4pDJf5GkUQkJBeE-4">
          <mxGeometry relative="1" as="geometry">
            <mxPoint x="770" y="500" as="sourcePoint" />
            <mxPoint x="900" y="820" as="targetPoint" />
            <Array as="points">
              <mxPoint x="770" y="820" />
            </Array>
          </mxGeometry>
        </mxCell>
        <mxCell id="VD05A4pDJf5GkUQkJBeE-144" value="" style="endArrow=none;html=1;rounded=0;exitX=1;exitY=1;exitDx=0;exitDy=0;" edge="1" parent="1" source="VD05A4pDJf5GkUQkJBeE-1">
          <mxGeometry relative="1" as="geometry">
            <mxPoint x="560" y="500" as="sourcePoint" />
            <mxPoint x="770" y="500" as="targetPoint" />
          </mxGeometry>
        </mxCell>
        <mxCell id="VD05A4pDJf5GkUQkJBeE-145" value="1" style="text;html=1;align=center;verticalAlign=middle;resizable=0;points=[];autosize=1;strokeColor=none;fillColor=none;" vertex="1" parent="1">
          <mxGeometry x="555" y="478" width="30" height="30" as="geometry" />
        </mxCell>
        <mxCell id="VD05A4pDJf5GkUQkJBeE-146" value="M" style="text;html=1;align=center;verticalAlign=middle;resizable=0;points=[];autosize=1;strokeColor=none;fillColor=none;" vertex="1" parent="1">
          <mxGeometry x="875" y="798" width="30" height="30" as="geometry" />
        </mxCell>
        <mxCell id="VD05A4pDJf5GkUQkJBeE-147" value="Owns" style="text;html=1;align=center;verticalAlign=middle;resizable=0;points=[];autosize=1;strokeColor=none;fillColor=none;" vertex="1" parent="1">
          <mxGeometry x="755" y="608" width="50" height="30" as="geometry" />
        </mxCell>
        <mxCell id="VD05A4pDJf5GkUQkJBeE-148" value="Classification" style="ellipse;whiteSpace=wrap;html=1;" vertex="1" parent="1">
          <mxGeometry x="290" y="810" width="86" height="40" as="geometry" />
        </mxCell>
        <mxCell id="VD05A4pDJf5GkUQkJBeE-149" value="" style="endArrow=none;html=1;rounded=0;entryX=1;entryY=0.5;entryDx=0;entryDy=0;exitX=0;exitY=0.75;exitDx=0;exitDy=0;" edge="1" parent="1" source="VD05A4pDJf5GkUQkJBeE-3" target="VD05A4pDJf5GkUQkJBeE-148">
          <mxGeometry width="50" height="50" relative="1" as="geometry">
            <mxPoint x="409" y="850" as="sourcePoint" />
            <mxPoint x="379" y="832" as="targetPoint" />
            <Array as="points" />
          </mxGeometry>
        </mxCell>
        <mxCell id="VD05A4pDJf5GkUQkJBeE-150" value="" style="endArrow=none;html=1;rounded=0;entryX=1;entryY=1;entryDx=0;entryDy=0;exitX=0;exitY=1;exitDx=0;exitDy=0;" edge="1" parent="1" source="VD05A4pDJf5GkUQkJBeE-4" target="VD05A4pDJf5GkUQkJBeE-3">
          <mxGeometry width="50" height="50" relative="1" as="geometry">
            <mxPoint x="900" y="847" as="sourcePoint" />
            <mxPoint x="737" y="845" as="targetPoint" />
            <Array as="points" />
          </mxGeometry>
        </mxCell>
        <mxCell id="VD05A4pDJf5GkUQkJBeE-151" value="M" style="edgeLabel;html=1;align=center;verticalAlign=middle;resizable=0;points=[];" vertex="1" connectable="0" parent="VD05A4pDJf5GkUQkJBeE-150">
          <mxGeometry x="-0.9147" y="-1" relative="1" as="geometry">
            <mxPoint x="6" y="-9" as="offset" />
          </mxGeometry>
        </mxCell>
        <mxCell id="VD05A4pDJf5GkUQkJBeE-153" value="Assigned" style="edgeLabel;html=1;align=center;verticalAlign=middle;resizable=0;points=[];" vertex="1" connectable="0" parent="VD05A4pDJf5GkUQkJBeE-150">
          <mxGeometry x="0.0027" y="5" relative="1" as="geometry">
            <mxPoint y="5" as="offset" />
          </mxGeometry>
        </mxCell>
        <mxCell id="VD05A4pDJf5GkUQkJBeE-152" value="M" style="text;html=1;align=center;verticalAlign=middle;resizable=0;points=[];autosize=1;strokeColor=none;fillColor=none;" vertex="1" parent="1">
          <mxGeometry x="535" y="828" width="30" height="30" as="geometry" />
        </mxCell>
        <mxCell id="VD05A4pDJf5GkUQkJBeE-154" value="" style="endArrow=none;html=1;rounded=0;entryX=1;entryY=0.5;entryDx=0;entryDy=0;" edge="1" parent="1">
          <mxGeometry relative="1" as="geometry">
            <mxPoint x="723" y="875.5" as="sourcePoint" />
            <mxPoint x="558" y="1040.5" as="targetPoint" />
            <Array as="points">
              <mxPoint x="724" y="1040.5" />
            </Array>
          </mxGeometry>
        </mxCell>
        <mxCell id="VD05A4pDJf5GkUQkJBeE-161" value="1" style="edgeLabel;html=1;align=center;verticalAlign=middle;resizable=0;points=[];" vertex="1" connectable="0" parent="VD05A4pDJf5GkUQkJBeE-154">
          <mxGeometry x="0.8731" y="-3" relative="1" as="geometry">
            <mxPoint x="-2" y="-7" as="offset" />
          </mxGeometry>
        </mxCell>
        <mxCell id="VD05A4pDJf5GkUQkJBeE-158" value="" style="endArrow=none;html=1;rounded=0;" edge="1" parent="1">
          <mxGeometry width="50" height="50" relative="1" as="geometry">
            <mxPoint x="920" y="880" as="sourcePoint" />
            <mxPoint x="720" y="880" as="targetPoint" />
            <Array as="points" />
          </mxGeometry>
        </mxCell>
        <mxCell id="VD05A4pDJf5GkUQkJBeE-159" value="" style="endArrow=none;html=1;rounded=0;" edge="1" parent="1">
          <mxGeometry width="50" height="50" relative="1" as="geometry">
            <mxPoint x="920" y="880" as="sourcePoint" />
            <mxPoint x="920" y="847" as="targetPoint" />
            <Array as="points" />
          </mxGeometry>
        </mxCell>
        <mxCell id="VD05A4pDJf5GkUQkJBeE-160" value="1" style="text;html=1;align=center;verticalAlign=middle;resizable=0;points=[];autosize=1;strokeColor=none;fillColor=none;" vertex="1" parent="1">
          <mxGeometry x="914" y="850" width="30" height="30" as="geometry" />
        </mxCell>
        <mxCell id="VD05A4pDJf5GkUQkJBeE-163" value="" style="endArrow=none;html=1;rounded=0;" edge="1" parent="1">
          <mxGeometry relative="1" as="geometry">
            <mxPoint x="200" y="480" as="sourcePoint" />
            <mxPoint x="191" y="1210" as="targetPoint" />
          </mxGeometry>
        </mxCell>
        <mxCell id="VD05A4pDJf5GkUQkJBeE-164" value="" style="endArrow=none;html=1;rounded=0;exitX=0.008;exitY=0.65;exitDx=0;exitDy=0;exitPerimeter=0;" edge="1" parent="1" source="VD05A4pDJf5GkUQkJBeE-1">
          <mxGeometry width="50" height="50" relative="1" as="geometry">
            <mxPoint x="350" y="460" as="sourcePoint" />
            <mxPoint x="200" y="480" as="targetPoint" />
          </mxGeometry>
        </mxCell>
        <mxCell id="VD05A4pDJf5GkUQkJBeE-165" value="1" style="text;html=1;align=center;verticalAlign=middle;resizable=0;points=[];autosize=1;strokeColor=none;fillColor=none;" vertex="1" parent="1">
          <mxGeometry x="404" y="478" width="30" height="30" as="geometry" />
        </mxCell>
        <mxCell id="VD05A4pDJf5GkUQkJBeE-166" value="Keeps" style="text;html=1;align=center;verticalAlign=middle;resizable=0;points=[];autosize=1;strokeColor=none;fillColor=none;" vertex="1" parent="1">
          <mxGeometry x="150" y="758" width="60" height="30" as="geometry" />
        </mxCell>
        <mxCell id="VD05A4pDJf5GkUQkJBeE-167" value="&lt;span style=&quot;font-size: 11px; background-color: rgb(255, 255, 255);&quot;&gt;Assigned&lt;/span&gt;" style="text;html=1;align=center;verticalAlign=middle;resizable=0;points=[];autosize=1;strokeColor=none;fillColor=none;" vertex="1" parent="1">
          <mxGeometry x="695" y="918" width="70" height="30" as="geometry" />
        </mxCell>
      </root>
    </mxGraphModel>
  </diagram>
</mxfile>
